<?xml version="1.0" encoding="UTF-8"?><svg id="a" xmlns="http://www.w3.org/2000/svg" width="64" height="64" viewBox="0 0 64 64"><path d="M3.54,13.07v37.86c0,.25.2.45.45.45h56.02c.25,0,.45-.2.45-.45V13.07c0-.25-.2-.45-.45-.45H3.99c-.25,0-.45.2-.45.45ZM59.33,14.2v4.68c0,.25-.2.45-.45.45H5.12c-.25,0-.45-.2-.45-.45v-4.68c0-.25.2-.45.45-.45h53.76c.25,0,.45.2.45.45ZM16.71,31.05v8.09c0,.25-.2.45-.45.45H5.12c-.25,0-.45-.2-.45-.45v-8.09c0-.25.2-.45.45-.45h11.14c.25,0,.45.2.45.45ZM4.67,29.01v-8.09c0-.25.2-.45.45-.45h11.14c.25,0,.45.2.45.45v8.09c0,.25-.2.45-.45.45H5.12c-.25,0-.45-.2-.45-.45ZM18.29,30.59h40.58c.25,0,.45.2.45.45v8.09c0,.25-.2.45-.45.45H18.29c-.25,0-.45-.2-.45-.45v-8.09c0-.25.2-.45.45-.45ZM17.84,29.01v-8.09c0-.25.2-.45.45-.45h40.58c.25,0,.45.2.45.45v8.09c0,.25-.2.45-.45.45H18.29c-.25,0-.45-.2-.45-.45ZM5.12,40.72h11.14c.25,0,.45.2.45.45v8.63c0,.25-.2.45-.45.45H5.12c-.25,0-.45-.2-.45-.45v-8.63c0-.25.2-.45.45-.45ZM17.84,49.8v-8.63c0-.25.2-.45.45-.45h40.58c.25,0,.45.2.45.45v8.63c0,.25-.2.45-.45.45H18.29c-.25,0-.45-.2-.45-.45Z" fill="#8f8f8f"/><path d="M11.43,27s-.12-.02-.24-.02h-1.03c-.09,0-.15-.01-.2-.04-.05-.03-.08-.08-.08-.15,0-.05.01-.09.04-.13.07.02.13.02.18.02s.1,0,.13-.02c.03-.01.06-.03.08-.06.05-.06.08-.16.08-.31v-2.52c0-.13-.04-.21-.11-.24-.02-.01-.05-.02-.09-.03-.04,0-.08-.02-.12-.03-.04,0-.07-.02-.1-.03-.05-.03-.08-.07-.08-.13s.01-.11.04-.14c.04.01.12.02.24.02h1c.09,0,.15.01.21.04.05.03.08.08.08.15,0,.05-.01.1-.04.13-.06-.02-.13-.02-.2-.02-.16,0-.24.13-.25.39v2.51c0,.13.04.21.11.25.02,0,.05.02.09.03.04,0,.08.02.12.03s.07.02.1.03c.05.03.08.07.08.13,0,.06-.01.1-.04.14Z" fill="#8f8f8f"/><path d="M10.38,37.01s-.12-.02-.24-.02h-1.03c-.09,0-.15-.01-.2-.04-.05-.03-.08-.08-.08-.15,0-.05.01-.09.04-.13.07.02.13.02.18.02s.1,0,.13-.02c.03-.01.06-.03.08-.06.05-.06.08-.16.08-.31v-2.52c0-.13-.04-.21-.11-.24-.02-.01-.05-.02-.09-.03-.04,0-.08-.02-.12-.03-.04,0-.07-.02-.1-.03-.05-.03-.08-.07-.08-.13s.01-.11.04-.14c.04.01.12.02.24.02h1c.09,0,.15.01.21.04.05.03.08.08.08.15,0,.05-.01.1-.04.13-.06-.02-.13-.02-.2-.02-.16,0-.24.13-.25.39v2.51c0,.13.04.21.11.25.02,0,.05.02.09.03.04,0,.08.02.12.03s.07.02.1.03c.05.03.08.07.08.13,0,.06-.01.1-.04.14Z" fill="#8f8f8f"/><path d="M12.49,37.01s-.12-.02-.24-.02h-1.03c-.09,0-.15-.01-.2-.04-.05-.03-.08-.08-.08-.15,0-.05.01-.09.04-.13.07.02.13.02.18.02s.1,0,.13-.02c.03-.01.06-.03.08-.06.05-.06.08-.16.08-.31v-2.52c0-.13-.04-.21-.11-.24-.02-.01-.05-.02-.09-.03-.04,0-.08-.02-.12-.03-.04,0-.07-.02-.1-.03-.05-.03-.08-.07-.08-.13s.01-.11.04-.14c.04.01.12.02.24.02h1c.09,0,.15.01.21.04.05.03.08.08.08.15,0,.05-.01.1-.04.13-.06-.02-.13-.02-.2-.02-.16,0-.24.13-.25.39v2.51c0,.13.04.21.11.25.02,0,.05.02.09.03.04,0,.08.02.12.03s.07.02.1.03c.05.03.08.07.08.13,0,.06-.01.1-.04.14Z" fill="#8f8f8f"/><path d="M9.32,47.21s-.12-.02-.24-.02h-1.03c-.09,0-.15-.01-.2-.04-.05-.03-.08-.08-.08-.15,0-.05.01-.09.04-.13.07.02.13.02.18.02s.1,0,.13-.02c.03-.01.06-.03.08-.06.05-.06.08-.16.08-.31v-2.52c0-.13-.04-.21-.11-.24-.02-.01-.05-.02-.09-.03-.04,0-.08-.02-.12-.03-.04,0-.07-.02-.1-.03-.05-.03-.08-.07-.08-.13s.01-.11.04-.14c.04.01.12.02.24.02h1c.09,0,.15.01.21.04.05.03.08.08.08.15,0,.05-.01.1-.04.13-.06-.02-.13-.02-.2-.02-.16,0-.24.13-.25.39v2.51c0,.13.04.21.11.25.02,0,.05.02.09.03.04,0,.08.02.12.03s.07.02.1.03c.05.03.08.07.08.13,0,.06-.01.1-.04.14Z" fill="#8f8f8f"/><path d="M11.43,47.21s-.12-.02-.24-.02h-1.03c-.09,0-.15-.01-.2-.04-.05-.03-.08-.08-.08-.15,0-.05.01-.09.04-.13.07.02.13.02.18.02s.1,0,.13-.02c.03-.01.06-.03.08-.06.05-.06.08-.16.08-.31v-2.52c0-.13-.04-.21-.11-.24-.02-.01-.05-.02-.09-.03-.04,0-.08-.02-.12-.03-.04,0-.07-.02-.1-.03-.05-.03-.08-.07-.08-.13s.01-.11.04-.14c.04.01.12.02.24.02h1c.09,0,.15.01.21.04.05.03.08.08.08.15,0,.05-.01.1-.04.13-.06-.02-.13-.02-.2-.02-.16,0-.24.13-.25.39v2.51c0,.13.04.21.11.25.02,0,.05.02.09.03.04,0,.08.02.12.03s.07.02.1.03c.05.03.08.07.08.13,0,.06-.01.1-.04.14Z" fill="#8f8f8f"/><path d="M13.54,47.21s-.12-.02-.24-.02h-1.03c-.09,0-.15-.01-.2-.04-.05-.03-.08-.08-.08-.15,0-.05.01-.09.04-.13.07.02.13.02.18.02s.1,0,.13-.02c.03-.01.06-.03.08-.06.05-.06.08-.16.08-.31v-2.52c0-.13-.04-.21-.11-.24-.02-.01-.05-.02-.09-.03-.04,0-.08-.02-.12-.03-.04,0-.07-.02-.1-.03-.05-.03-.08-.07-.08-.13s.01-.11.04-.14c.04.01.12.02.24.02h1c.09,0,.15.01.21.04.05.03.08.08.08.15,0,.05-.01.1-.04.13-.06-.02-.13-.02-.2-.02-.16,0-.24.13-.25.39v2.51c0,.13.04.21.11.25.02,0,.05.02.09.03.04,0,.08.02.12.03s.07.02.1.03c.05.03.08.07.08.13,0,.06-.01.1-.04.14Z" fill="#8f8f8f"/></svg>