<?xml version="1.0" encoding="utf-8"?>
<!-- Generator: Adobe Illustrator 24.0.2, SVG Export Plug-In . SVG Version: 6.00 Build 0)  -->
<svg version="1.1" id="Capa_1" xmlns="http://www.w3.org/2000/svg" xmlns:xlink="http://www.w3.org/1999/xlink" x="0px" y="0px"
	 viewBox="0 0 300 200" style="enable-background:new 0 0 300 200;" xml:space="preserve">
<style type="text/css">
	.st0{fill:#BABABA;}
	.st1{fill:#FFFFFF;}
	.st2{fill:#1C1C1C;}
	.st3{fill:#C44900;}
	.st4{fill:#8F3400;}
	.st5{fill:#8F8F8F;}
</style>
<g>
	<g>
		<g>
			<circle class="st0" cx="150.05" cy="125.51" r="2.61"/>
		</g>
		<g>
			<path class="st0" d="M200.68,47.56H99.12c-0.82,0-1.49,0.67-1.49,1.49v101.91c0,0.81,0.66,1.48,1.48,1.48H200.9
				c0.81,0,1.48-0.67,1.48-1.48V49.25C202.37,48.32,201.61,47.56,200.68,47.56z M100.29,49.41h99.21c0.55,0,0.99,0.46,0.97,1
				c-1,26.37-22.29,47.62-48.68,48.54c-0.03,0.01-0.06,0.01-0.09,0.01h-0.8v-9.11c0-0.13,0.04-0.26,0.1-0.36l0.51-0.87l11.73-20.31
				l1.11-1.92l4.22-7.32c0.29-0.49-0.07-1.11-0.64-1.11h-35.85c-0.57,0-0.93,0.61-0.64,1.11l4.22,7.31l1.1,1.92v0.01l6.63,11.48
				l5.1,8.84l0.48,0.84c0.06,0.11,0.09,0.23,0.09,0.36v9.14h-0.89v-0.02c-17.29-0.62-33.25-10.15-41.97-25.2
				c-4.13-7.14-6.43-15.25-6.7-23.54C99.51,49.77,99.86,49.41,100.29,49.41z M164.5,126.86c-0.56,7.04-6.26,12.74-13.3,13.29
				c-8.94,0.71-16.38-6.72-15.67-15.66c0.56-7.04,6.26-12.74,13.3-13.3C157.77,110.48,165.21,117.91,164.5,126.86z M149.09,83.38
				c0,0.74-0.98,1.01-1.36,0.36l-9.97-17.28l-1.03-1.78l-2.23-3.86c-0.29-0.49,0.07-1.11,0.64-1.11h13.22
				c0.41,0,0.73,0.33,0.73,0.73V83.38z M150.91,83.39V60.46c0-0.41,0.33-0.73,0.73-0.73h13.22c0.57,0,0.92,0.61,0.64,1.11
				l-2.23,3.86l-1.03,1.78l-9.98,17.28C151.9,84.4,150.91,84.13,150.91,83.39z M99.47,66.98c0-0.83,1.14-1.02,1.43-0.24
				c2.4,6.44,6.03,12.27,10.6,17.23c0.06,0.07,0.12,0.14,0.19,0.2c0.31,0.33,0.62,0.66,0.94,0.98c0.02,0.03,0.05,0.05,0.07,0.07
				c0.33,0.34,0.67,0.67,1.01,1c0.4,0.38,0.79,0.76,1.2,1.12c0.51,0.46,1.03,0.91,1.55,1.34c0.28,0.23,0.55,0.46,0.83,0.68
				c0.08,0.07,0.17,0.14,0.25,0.2c5.75,4.53,12.4,7.84,19.53,9.67c0.73,0.19,0.73,1.22,0,1.41c-6.74,1.73-13.07,4.79-18.61,8.95
				c-0.32,0.24-0.65,0.49-0.96,0.74c-0.47,0.37-0.94,0.76-1.4,1.15c-0.46,0.4-0.92,0.8-1.37,1.21c-0.3,0.27-0.59,0.54-0.88,0.82
				c-0.12,0.12-0.25,0.24-0.37,0.36c-0.36,0.35-0.71,0.7-1.05,1.06c-0.31,0.32-0.62,0.65-0.92,0.97c-0.02,0.02-0.03,0.03-0.05,0.05
				c-2.58,2.8-4.89,5.88-6.83,9.24c-1.46,2.53-2.71,5.17-3.72,7.89c-0.22,0.59-0.92,0.62-1.25,0.26c-0.05-0.05-0.08-0.11-0.11-0.18
				c-0.04-0.09-0.06-0.19-0.06-0.31V66.98z M199.73,150.58h-99.46c-0.42,0-0.77-0.35-0.76-0.77c0.26-8.34,2.56-16.5,6.71-23.69
				c8.73-15.09,24.74-24.62,42.07-25.21c0.42-0.02,0.78,0.33,0.78,0.75v7.01c0,0.38-0.3,0.69-0.67,0.72
				c-8.7,0.85-15.42,8.55-14.69,17.62c0.65,7.98,7.14,14.4,15.13,14.96c9.54,0.67,17.52-6.91,17.52-16.31
				c0-8.48-6.49-15.47-14.76-16.27c-0.38-0.04-0.67-0.34-0.67-0.73v-7.01c0-0.42,0.35-0.77,0.78-0.75
				c26.54,0.89,47.96,22.33,48.78,48.9C200.5,150.23,200.15,150.58,199.73,150.58z M200.53,132.86c0,0.83-1.15,1.03-1.44,0.24
				c-5.94-15.9-19.4-28.17-36.04-32.45c-0.74-0.19-0.74-1.24,0-1.43c16.64-4.28,30.11-16.56,36.05-32.48
				c0.29-0.78,1.43-0.59,1.43,0.24V132.86z"/>
		</g>
		<g>
			<path class="st0" d="M112.63,85.15c0.02,0.02,0.05,0.05,0.07,0.07C112.68,85.2,112.65,85.18,112.63,85.15z"/>
		</g>
		<g>
			<path class="st0" d="M112.7,85.23c0.33,0.34,0.67,0.67,1.01,1C113.37,85.9,113.03,85.56,112.7,85.23z"/>
		</g>
		<g>
			<path class="st0" d="M114.91,87.35c-0.41-0.37-0.8-0.74-1.2-1.12C114.11,86.6,114.5,86.98,114.91,87.35z"/>
		</g>
		<g>
			<path class="st0" d="M113.47,113.88c-5.5,5.36-9.83,11.91-12.56,19.22c-0.25,0.67-1.14,0.62-1.37,0.06
				c0.24,0.55,1.12,0.6,1.37-0.07c1.01-2.73,2.25-5.37,3.72-7.89C107.06,120.98,110.06,117.19,113.47,113.88z"/>
		</g>
		<g>
			<path class="st0" d="M116.1,111.49c-0.47,0.39-0.92,0.8-1.37,1.21C115.18,112.29,115.63,111.88,116.1,111.49z"/>
		</g>
		<g>
			<path class="st0" d="M114.72,112.7c-0.3,0.27-0.59,0.54-0.88,0.82C114.14,113.24,114.43,112.97,114.72,112.7z"/>
		</g>
		<g>
			<path class="st0" d="M113.85,113.52c-0.13,0.12-0.25,0.24-0.37,0.36C113.6,113.76,113.72,113.64,113.85,113.52z"/>
		</g>
	</g>
	<g>
		<g>
			<path d="M116.94,111.18c0.62-0.53,1.28-0.8,1.97-0.8c1.06,0,1.67,0.15,1.83,0.45c0.9,1.8,1.35,4.78,1.35,8.93
				c0,2.88-0.32,4.97-0.97,6.26c-0.21,0.37-0.43,0.55-0.66,0.55H82.26c-2.75,0-4.12-0.82-4.12-2.46c0-0.88,0.18-1.55,0.55-2.01
				c0.78,0.23,1.55,0.35,2.28,0.35s1.37-0.06,1.9-0.17c0.53-0.12,1.03-0.36,1.49-0.73c1.11-0.85,1.66-2.3,1.66-4.33V82.18
				c0-2.01-0.81-3.29-2.42-3.84c-0.46-0.16-0.94-0.31-1.44-0.43c-0.5-0.13-0.97-0.25-1.42-0.38c-0.45-0.13-0.85-0.27-1.19-0.43
				c-0.78-0.42-1.18-0.98-1.18-1.7c0-0.95,0.18-1.63,0.55-2.04c0.42,0.12,0.83,0.17,1.25,0.17h35.4c2.12,0,3.45,0.2,3.98,0.59
				c0.97,0.69,1.45,2.21,1.45,4.57c0,2.26-0.19,4.11-0.57,5.54c-0.38,1.43-0.65,2.28-0.81,2.56c-0.23,0.42-0.68,0.62-1.35,0.62
				c-0.97,0-1.63-0.12-1.99-0.36c-0.36-0.24-0.55-0.42-0.57-0.54c-0.3-3.3-0.82-5.4-1.56-6.32c-0.74-0.91-1.61-1.53-2.61-1.87
				c-1-0.33-2.31-0.5-3.93-0.5h-7.72c-2.45,0-3.94,0.24-4.48,0.73c-0.54,0.48-0.88,1.04-1.02,1.68c-0.14,0.63-0.21,1.45-0.21,2.44
				V97.4l2.04,0.03c5.1,0,9.83-0.45,14.19-1.35c0.32,0.16,0.61,0.62,0.87,1.37c0.25,0.75,0.38,1.49,0.38,2.23
				c0,1.25-0.21,2.33-0.62,3.25c-1.52,0.14-3.28,0.21-5.26,0.21c-1.98,0-5.85-0.32-11.59-0.97v15.61c0,1.73,0.46,2.9,1.38,3.5
				c0.78,0.51,2.19,0.76,4.22,0.76l5.23-0.14c5.05-0.18,8.34-0.89,9.86-2.11c0.85-0.69,1.42-1.6,1.7-2.73
				c0.28-1.13,0.42-2.27,0.42-3.41C117,112.51,116.98,111.69,116.94,111.18z"/>
			<path d="M147.06,126.92l-9.86-0.38h-8.93c-1.2,0-2.2-0.2-3.01-0.61c-0.81-0.4-1.21-0.91-1.21-1.51c0-1.11,0.17-1.88,0.52-2.32
				c0.83,0.23,1.67,0.35,2.53,0.35c0.85,0,1.57-0.06,2.16-0.17c0.59-0.12,1.11-0.36,1.57-0.73c1.06-0.83,1.59-2.27,1.59-4.33V81.97
				c0-2.15-1.34-3.48-4.01-4.01c-1.66-0.35-2.74-0.72-3.24-1.12c-0.5-0.4-0.74-0.85-0.74-1.33c0-1.06,0.18-1.78,0.55-2.15
				c0.42,0.12,0.8,0.17,1.14,0.17h10.49c0.53,0,1.23-0.02,2.11-0.07l2.94-0.17c2.88-0.14,5.84-0.21,8.88-0.21
				c3.03,0,5.98,0.36,8.84,1.09c2.86,0.73,5.33,1.71,7.42,2.96c2.09,1.25,3.83,2.69,5.23,4.34c1.4,1.65,2.52,3.4,3.37,5.24
				c1.52,3.39,2.28,7.2,2.28,11.42c0,7.66-1.98,14.03-5.95,19.1c-3.11,3.99-7.69,6.81-13.74,8.44
				C154.86,126.51,151.22,126.92,147.06,126.92z M140.59,118.24c0,1.73,0.54,2.85,1.63,3.36c0.92,0.42,3.13,0.62,6.63,0.62
				c3.5,0,6.6-0.58,9.33-1.73c2.72-1.15,4.89-2.71,6.51-4.67c2.91-3.53,4.36-8.5,4.36-14.92c0-11-3.89-18.19-11.66-21.56
				c-2.82-1.22-6.29-1.83-10.42-1.83c-2.75,0-4.42,0.27-5.02,0.81c-0.6,0.54-0.98,1.21-1.13,2.01c-0.15,0.8-0.23,1.86-0.23,3.2
				V118.24z"/>
			<path d="M177.72,126.58c-2.88,0-4.33-0.96-4.33-2.87c0-0.71,0.18-1.26,0.55-1.63c0.51,0.21,1.21,0.31,2.11,0.31
				c0.9,0,1.66-0.1,2.28-0.29c0.62-0.2,1.25-0.5,1.87-0.92c1.2-0.83,2.54-2.21,4.01-4.15l12.74-15.88l-14.81-18.93
				c-0.35-0.37-0.7-0.77-1.07-1.21c-0.37-0.44-0.74-0.85-1.11-1.25c-0.92-0.95-1.7-1.51-2.34-1.7c-0.63-0.18-1.21-0.34-1.73-0.47
				c-0.52-0.13-0.96-0.29-1.33-0.5c-0.76-0.39-1.14-1.08-1.14-2.08c0-0.65,0.17-1.22,0.52-1.73c0.58,0.16,1.72,0.24,3.43,0.24h14.92
				c2.26,0,3.69,0.4,4.29,1.21c0.25,0.35,0.38,0.74,0.38,1.18c0,0.99-0.18,1.67-0.55,2.04c-1.13-0.25-2.25-0.38-3.36-0.38
				c-1.8,0-2.7,0.48-2.7,1.45c0,0.51,0.44,1.35,1.32,2.53l10.35,14.36l9.45-13.53c0.69-1.04,1.04-1.79,1.04-2.25
				c0-0.46-0.1-0.82-0.29-1.09c-0.2-0.27-0.44-0.48-0.74-0.64c-0.3-0.16-0.63-0.28-1-0.36c-0.37-0.08-0.79-0.17-1.26-0.28
				c-0.47-0.1-0.93-0.21-1.37-0.33c-0.44-0.12-0.81-0.26-1.11-0.45c-0.6-0.37-0.9-0.87-0.9-1.49c0-0.97,0.18-1.7,0.55-2.18
				c0.46,0.14,1.59,0.21,3.39,0.21h13.43c2.28,0,3.73,0.4,4.33,1.21c0.25,0.35,0.38,0.74,0.38,1.18c0,1.02-0.15,1.7-0.45,2.04
				c-0.53-0.21-1.22-0.31-2.06-0.31c-0.84,0-1.6,0.2-2.28,0.61c-0.68,0.4-1.38,0.93-2.09,1.57c-1.41,1.27-2.75,2.77-4.01,4.5
				l-11.8,15.71l14.36,17.82l1.11,1.25c1.45,1.68,2.6,2.65,3.43,2.89c0.83,0.24,1.52,0.42,2.06,0.54c0.54,0.12,1,0.27,1.37,0.45
				c0.83,0.44,1.25,1.13,1.25,2.08c0,0.6-0.17,1.18-0.52,1.73c-0.46-0.14-1.6-0.21-3.43-0.21h-15.09c-2.1,0-3.41-0.45-3.95-1.35
				c-0.23-0.37-0.35-0.76-0.35-1.18c0-0.9,0.18-1.56,0.55-1.97l0.73,0.14c0.83,0.18,1.63,0.27,2.4,0.26
				c0.77-0.01,1.34-0.06,1.71-0.16c0.37-0.09,0.55-0.33,0.55-0.73c0-0.69-0.5-1.72-1.49-3.08l-9.83-13.15l-9.66,13.29
				c-0.6,0.74-0.9,1.38-0.9,1.92c0,0.54,0.27,0.93,0.81,1.16c0.54,0.23,1.13,0.42,1.75,0.55l1.66,0.35
				c1.13,0.21,1.85,0.53,2.16,0.95c0.31,0.43,0.47,0.85,0.47,1.26c0,0.74-0.17,1.38-0.52,1.94c-0.46-0.14-1.6-0.21-3.43-0.21H177.72
				z"/>
		</g>
		<g>
			<path d="M38.83,126.56c-1.7,0-2.55-0.47-2.55-1.41c0-0.42,0.1-0.75,0.3-1.01c0.37,0.1,0.74,0.15,1.12,0.15
				c0.38,0,0.7-0.01,0.97-0.04c0.27-0.03,0.51-0.13,0.74-0.32c0.47-0.43,0.76-1.39,0.87-2.87l1.96-20.17
				c0.03-0.32-0.08-0.56-0.32-0.74c-0.24-0.18-0.54-0.3-0.89-0.38c-0.35-0.08-0.66-0.14-0.92-0.19c-0.26-0.05-0.48-0.13-0.67-0.23
				c-0.39-0.19-0.59-0.52-0.59-0.98c0-0.46,0.09-0.81,0.27-1.04c0.24,0.06,0.46,0.1,0.65,0.1h5.62c1.89,0,3.05,0.46,3.48,1.39
				l7.07,16.58l7.29-16.68c0.24-0.56,0.6-0.91,1.08-1.06c0.48-0.15,1.09-0.23,1.84-0.23h3.69c1.71,0,2.56,0.45,2.56,1.35
				c0,0.48-0.09,0.83-0.28,1.04c-0.51-0.14-0.92-0.21-1.24-0.21c-0.32,0-0.61,0.03-0.86,0.08c-0.25,0.05-0.46,0.15-0.61,0.28
				c-0.32,0.27-0.44,0.8-0.36,1.6l2.05,20.78c0.09,0.89,0.56,1.44,1.42,1.67c0.24,0.06,0.49,0.14,0.76,0.23l0.74,0.25
				c0.47,0.15,0.75,0.35,0.85,0.6c0.1,0.25,0.15,0.48,0.15,0.71c0,0.32-0.09,0.6-0.28,0.84c-0.29-0.06-0.59-0.1-0.89-0.1h-8.66
				c-1.55,0-2.32-0.46-2.32-1.39c0-0.15,0.04-0.34,0.13-0.58c0.09-0.23,0.16-0.38,0.21-0.45c0.38,0.1,0.73,0.15,1.05,0.15
				c0.32,0,0.66-0.03,1.01-0.08c0.35-0.05,0.64-0.17,0.88-0.36c0.52-0.43,0.74-1.25,0.66-2.45l-1.23-16.3l-0.17-3.17l-8.74,19.36
				c-0.17,0.1-0.42,0.15-0.76,0.15s-0.69-0.12-1.05-0.37c-0.36-0.25-0.69-0.55-0.98-0.92c-0.47-0.6-0.92-1.36-1.35-2.28l-7.07-16.56
				L43.92,122c-0.05,0.72,0.05,1.21,0.3,1.46c0.32,0.32,0.73,0.54,1.25,0.68c0.52,0.14,0.92,0.24,1.22,0.31
				c0.29,0.07,0.54,0.16,0.76,0.28c0.47,0.23,0.7,0.61,0.7,1.14c0,0.27-0.1,0.53-0.3,0.78c-0.23-0.06-0.44-0.1-0.65-0.1H38.83z"/>
		</g>
		<g>
			<path d="M235.91,88.95h-1.75V73.39h1.75v1.04c0.99-0.88,2.21-1.33,3.61-1.33c3.2,0,5.52,2.46,5.52,5.83
				c0,3.36-2.32,5.82-5.52,5.82c-1.4,0-2.62-0.44-3.61-1.32V88.95z M243.13,78.94c0-2.38-1.48-4.05-3.61-4.05s-3.62,1.67-3.62,4.05
				c0,2.37,1.49,4.04,3.62,4.04S243.13,81.31,243.13,78.94z"/>
			<path d="M248.68,84.47h-1.75V73.39h1.75v0.64c0.62-0.53,1.62-0.87,2.68-0.87c0.29,0,0.63,0.03,0.99,0.08v1.79
				c-0.37-0.08-0.69-0.14-0.97-0.14c-1.64,0-2.71,1.13-2.71,2.85V84.47z"/>
			<path d="M252.67,78.93c0-3.37,2.32-5.83,5.52-5.83c3.2,0,5.53,2.46,5.53,5.83c0,3.36-2.33,5.82-5.53,5.82
				C254.99,84.75,252.67,82.28,252.67,78.93z M261.81,78.93c0-2.38-1.49-4.05-3.62-4.05s-3.61,1.67-3.61,4.05
				c0,2.37,1.48,4.04,3.61,4.04S261.81,81.29,261.81,78.93z"/>
		</g>
	</g>
</g>
</svg>
