<?xml version="1.0" encoding="utf-8"?>
<!-- Generator: Adobe Illustrator 24.0.2, SVG Export Plug-In . SVG Version: 6.00 Build 0)  -->
<svg version="1.1" id="Capa_1" xmlns="http://www.w3.org/2000/svg" xmlns:xlink="http://www.w3.org/1999/xlink" x="0px" y="0px"
	 viewBox="0 0 300 300" style="enable-background:new 0 0 300 300;" xml:space="preserve">
<style type="text/css">
	.st0{fill:#BABABA;}
	.st1{fill:#FFFFFF;}
	.st2{fill:#1C1C1C;}
	.st3{fill:#C44900;}
	.st4{fill:#8F3400;}
	.st5{fill:#8F8F8F;}
</style>
<g>
	<g>
		<g>
			<g>
				<path class="st5" d="M116.23,241.15c0.64-0.54,1.31-0.81,2.01-0.81c1.08,0,1.71,0.15,1.87,0.46c0.92,1.84,1.38,4.88,1.38,9.12
					c0,2.95-0.33,5.08-0.99,6.4c-0.21,0.38-0.44,0.57-0.67,0.57H80.82c-2.8,0-4.21-0.84-4.21-2.51c0-0.9,0.19-1.58,0.57-2.05
					c0.8,0.24,1.58,0.35,2.33,0.35c0.75,0,1.4-0.06,1.94-0.18c0.54-0.12,1.05-0.36,1.52-0.74c1.13-0.87,1.7-2.34,1.7-4.42v-35.8
					c0-2.05-0.83-3.36-2.47-3.92c-0.47-0.16-0.96-0.31-1.47-0.44c-0.51-0.13-0.99-0.26-1.45-0.39c-0.46-0.13-0.87-0.28-1.22-0.44
					c-0.8-0.42-1.2-1-1.2-1.73c0-0.97,0.19-1.66,0.57-2.09c0.42,0.12,0.85,0.18,1.27,0.18h36.16c2.17,0,3.52,0.2,4.06,0.6
					c0.99,0.71,1.48,2.26,1.48,4.67c0,2.31-0.19,4.19-0.58,5.65c-0.39,1.46-0.67,2.33-0.83,2.62c-0.24,0.42-0.69,0.64-1.38,0.64
					c-0.99,0-1.67-0.12-2.03-0.37c-0.37-0.25-0.56-0.43-0.58-0.55c-0.31-3.37-0.84-5.52-1.59-6.45c-0.75-0.93-1.64-1.57-2.67-1.91
					c-1.02-0.34-2.36-0.51-4.01-0.51h-7.88c-2.5,0-4.02,0.25-4.58,0.74c-0.55,0.49-0.9,1.07-1.04,1.71
					c-0.14,0.65-0.21,1.48-0.21,2.49v15.06l2.09,0.04c5.21,0,10.04-0.46,14.49-1.38c0.33,0.17,0.62,0.63,0.88,1.4
					c0.26,0.77,0.39,1.53,0.39,2.28c0,1.27-0.21,2.38-0.64,3.32c-1.55,0.14-3.35,0.21-5.37,0.21c-2.03,0-5.97-0.33-11.84-0.99v15.94
					c0,1.77,0.47,2.96,1.41,3.57c0.8,0.52,2.24,0.78,4.31,0.78l5.34-0.14c5.16-0.19,8.52-0.91,10.07-2.16
					c0.87-0.71,1.45-1.64,1.73-2.79c0.28-1.15,0.42-2.31,0.42-3.48C116.3,242.51,116.28,241.67,116.23,241.15z"/>
			</g>
			<g>
				<path class="st5" d="M147,257.23l-10.07-0.39h-9.12c-1.22,0-2.25-0.21-3.07-0.62c-0.83-0.41-1.24-0.92-1.24-1.54
					c0-1.13,0.18-1.92,0.53-2.37c0.85,0.24,1.71,0.35,2.58,0.35c0.87,0,1.61-0.06,2.21-0.18c0.6-0.12,1.14-0.36,1.61-0.74
					c1.08-0.85,1.63-2.32,1.63-4.42v-36.01c0-2.19-1.37-3.56-4.1-4.1c-1.7-0.35-2.8-0.74-3.3-1.15c-0.51-0.41-0.76-0.87-0.76-1.36
					c0-1.08,0.19-1.81,0.57-2.19c0.42,0.12,0.81,0.18,1.17,0.18h10.71c0.54,0,1.26-0.02,2.16-0.07l3-0.18
					c2.95-0.14,5.97-0.21,9.07-0.21c3.1,0,6.11,0.37,9.03,1.11c2.92,0.74,5.45,1.75,7.58,3.02c2.13,1.27,3.91,2.75,5.34,4.44
					c1.43,1.68,2.57,3.47,3.45,5.35c1.56,3.46,2.33,7.35,2.33,11.66c0,7.82-2.03,14.33-6.08,19.51c-3.18,4.08-7.86,6.95-14.03,8.62
					C154.96,256.81,151.24,257.23,147,257.23z M140.39,248.36c0,1.77,0.55,2.91,1.66,3.43c0.94,0.42,3.2,0.64,6.77,0.64
					c3.57,0,6.74-0.59,9.52-1.77c2.78-1.18,5-2.77,6.64-4.77c2.97-3.61,4.45-8.68,4.45-15.23c0-11.24-3.97-18.58-11.91-22.02
					c-2.88-1.25-6.42-1.87-10.64-1.87c-2.8,0-4.51,0.28-5.12,0.83c-0.61,0.55-1,1.24-1.15,2.05c-0.15,0.81-0.23,1.9-0.23,3.27
					V248.36z"/>
			</g>
			<g>
				<path class="st5" d="M178.3,256.88c-2.95,0-4.42-0.98-4.42-2.93c0-0.73,0.19-1.28,0.57-1.66c0.52,0.21,1.24,0.32,2.16,0.32
					c0.92,0,1.7-0.1,2.33-0.3c0.64-0.2,1.27-0.51,1.91-0.94c1.22-0.85,2.59-2.26,4.1-4.24l13.01-16.22l-15.13-19.33
					c-0.35-0.38-0.72-0.79-1.1-1.24c-0.38-0.45-0.75-0.87-1.13-1.27c-0.94-0.97-1.74-1.54-2.39-1.73c-0.65-0.19-1.24-0.35-1.77-0.48
					c-0.53-0.13-0.98-0.3-1.36-0.51c-0.78-0.4-1.17-1.11-1.17-2.12c0-0.66,0.18-1.25,0.53-1.77c0.59,0.17,1.76,0.25,3.5,0.25h15.23
					c2.31,0,3.77,0.41,4.38,1.24c0.26,0.35,0.39,0.75,0.39,1.2c0,1.01-0.19,1.71-0.57,2.09c-1.16-0.26-2.3-0.39-3.43-0.39
					c-1.84,0-2.76,0.49-2.76,1.48c0,0.52,0.45,1.38,1.34,2.58l10.57,14.67l9.65-13.82c0.71-1.06,1.06-1.83,1.06-2.3
					c0-0.47-0.1-0.84-0.3-1.11c-0.2-0.27-0.45-0.49-0.76-0.65c-0.31-0.16-0.65-0.29-1.02-0.37c-0.38-0.08-0.81-0.18-1.29-0.28
					c-0.48-0.11-0.95-0.22-1.4-0.34c-0.45-0.12-0.83-0.27-1.13-0.46c-0.61-0.38-0.92-0.88-0.92-1.52c0-0.99,0.19-1.73,0.57-2.23
					c0.47,0.14,1.63,0.21,3.46,0.21h13.71c2.33,0,3.81,0.41,4.42,1.24c0.26,0.35,0.39,0.75,0.39,1.2c0,1.04-0.15,1.73-0.46,2.09
					c-0.54-0.21-1.24-0.32-2.1-0.32c-0.86,0-1.64,0.21-2.33,0.62c-0.7,0.41-1.41,0.95-2.14,1.61c-1.44,1.3-2.8,2.83-4.1,4.59
					l-12.05,16.05l14.67,18.2l1.13,1.27c1.48,1.72,2.65,2.7,3.5,2.95s1.55,0.43,2.1,0.55c0.55,0.12,1.02,0.27,1.4,0.46
					c0.85,0.45,1.27,1.15,1.27,2.12c0,0.61-0.18,1.2-0.53,1.77c-0.47-0.14-1.64-0.21-3.5-0.21H211c-2.14,0-3.49-0.46-4.03-1.38
					c-0.24-0.38-0.35-0.78-0.35-1.2c0-0.92,0.19-1.59,0.57-2.01l0.74,0.14c0.85,0.19,1.67,0.28,2.46,0.27
					c0.79-0.01,1.37-0.06,1.75-0.16c0.38-0.09,0.57-0.34,0.57-0.74c0-0.71-0.51-1.75-1.52-3.15l-10.04-13.43l-9.86,13.57
					c-0.61,0.75-0.92,1.41-0.92,1.96c0,0.55,0.28,0.95,0.83,1.18c0.55,0.24,1.15,0.42,1.78,0.57l1.7,0.35
					c1.15,0.21,1.89,0.54,2.21,0.97c0.32,0.44,0.48,0.87,0.48,1.29c0,0.75-0.18,1.41-0.53,1.98c-0.47-0.14-1.64-0.21-3.5-0.21H178.3
					z"/>
			</g>
		</g>
		<g>
			<g>
				<path class="st5" d="M36.47,256.86c-1.73,0-2.6-0.48-2.6-1.44c0-0.43,0.1-0.77,0.31-1.03c0.37,0.1,0.76,0.16,1.15,0.16
					c0.39,0,0.72-0.01,0.99-0.04c0.27-0.03,0.52-0.14,0.76-0.33c0.48-0.44,0.78-1.42,0.89-2.93l2-20.6
					c0.03-0.32-0.08-0.58-0.33-0.76c-0.25-0.18-0.55-0.31-0.91-0.39c-0.36-0.08-0.68-0.14-0.94-0.19c-0.27-0.05-0.5-0.13-0.69-0.23
					c-0.4-0.19-0.6-0.53-0.6-1s0.09-0.82,0.27-1.06c0.25,0.06,0.47,0.1,0.66,0.1h5.74c1.93,0,3.11,0.47,3.55,1.42l7.22,16.94
					l7.45-17.03c0.25-0.57,0.61-0.93,1.11-1.09c0.49-0.16,1.12-0.23,1.88-0.23h3.76c1.75,0,2.62,0.46,2.62,1.38
					c0,0.49-0.1,0.85-0.29,1.07c-0.52-0.14-0.94-0.21-1.27-0.21c-0.33,0-0.62,0.03-0.88,0.08c-0.26,0.05-0.47,0.15-0.62,0.29
					c-0.32,0.27-0.45,0.81-0.37,1.63l2.1,21.22c0.09,0.91,0.58,1.47,1.45,1.71c0.25,0.06,0.5,0.14,0.78,0.23l0.76,0.25
					c0.48,0.16,0.77,0.36,0.87,0.61c0.1,0.25,0.16,0.49,0.16,0.73c0,0.32-0.1,0.61-0.29,0.85c-0.3-0.06-0.6-0.1-0.91-0.1h-8.85
					c-1.58,0-2.37-0.47-2.37-1.42c0-0.16,0.05-0.35,0.14-0.59c0.09-0.24,0.16-0.39,0.21-0.46c0.39,0.1,0.75,0.16,1.08,0.16
					c0.33,0,0.67-0.03,1.03-0.08c0.36-0.05,0.66-0.17,0.9-0.37c0.53-0.44,0.76-1.27,0.68-2.5l-1.26-16.64l-0.17-3.24l-8.92,19.77
					c-0.17,0.1-0.43,0.16-0.78,0.16c-0.35,0-0.71-0.13-1.08-0.38c-0.37-0.25-0.7-0.57-1-0.94c-0.48-0.61-0.94-1.38-1.38-2.33
					l-7.22-16.92l-1.57,21.13c-0.05,0.74,0.05,1.24,0.31,1.49c0.32,0.32,0.75,0.56,1.28,0.7c0.53,0.14,0.94,0.25,1.24,0.32
					c0.3,0.07,0.56,0.16,0.78,0.28c0.48,0.23,0.72,0.62,0.72,1.16c0,0.27-0.1,0.54-0.31,0.8c-0.23-0.06-0.45-0.1-0.66-0.1H36.47z"/>
			</g>
		</g>
		<g>
			<g>
				<path class="st5" d="M237.74,218.45h-1.78v-15.89h1.78v1.06c1.01-0.9,2.26-1.35,3.69-1.35c3.27,0,5.63,2.52,5.63,5.96
					c0,3.43-2.37,5.95-5.63,5.95c-1.43,0-2.68-0.45-3.69-1.34V218.45z M245.11,208.22c0-2.43-1.52-4.14-3.69-4.14
					s-3.7,1.71-3.7,4.14c0,2.42,1.53,4.13,3.7,4.13S245.11,210.64,245.11,208.22z"/>
			</g>
			<g>
				<path class="st5" d="M250.78,213.88h-1.78v-11.32h1.78v0.66c0.63-0.54,1.66-0.89,2.74-0.89c0.3,0,0.65,0.03,1.01,0.09v1.83
					c-0.38-0.09-0.71-0.14-0.99-0.14c-1.68,0-2.76,1.15-2.76,2.91V213.88z"/>
			</g>
			<g>
				<path class="st5" d="M254.85,208.21c0-3.44,2.37-5.96,5.63-5.96c3.27,0,5.64,2.52,5.64,5.96c0,3.43-2.38,5.95-5.64,5.95
					C257.22,214.16,254.85,211.64,254.85,208.21z M264.18,208.21c0-2.43-1.53-4.14-3.7-4.14s-3.69,1.71-3.69,4.14
					c0,2.42,1.52,4.13,3.69,4.13S264.18,210.63,264.18,208.21z"/>
			</g>
		</g>
	</g>
	<g>
		<g>
			<circle class="st5" cx="150.07" cy="145.76" r="3.44"/>
		</g>
		<g>
			<path class="st5" d="M216.97,42.77H82.76c-1.09,0-1.97,0.88-1.97,1.97v134.66c0,1.07,0.87,1.95,1.95,1.95h134.5
				c1.07,0,1.95-0.88,1.95-1.95V45C219.2,43.77,218.2,42.77,216.97,42.77z M84.31,45.22h131.09c0.72,0,1.31,0.61,1.29,1.32
				c-1.32,34.84-29.46,62.93-64.32,64.14c-0.04,0.01-0.08,0.01-0.12,0.01h-1.06V98.65c0-0.17,0.05-0.34,0.13-0.48l0.67-1.15
				l15.5-26.84l1.47-2.54l5.58-9.67c0.38-0.65-0.09-1.47-0.84-1.47h-47.37c-0.76,0-1.22,0.81-0.85,1.47l5.58,9.66l1.46,2.53v0.01
				l8.77,15.17l6.74,11.68l0.64,1.11c0.08,0.14,0.12,0.31,0.12,0.47v12.08h-1.17v-0.02c-22.84-0.82-43.93-13.41-55.45-33.3
				c-5.46-9.44-8.49-20.15-8.86-31.11C83.29,45.69,83.75,45.22,84.31,45.22z M169.15,147.55c-0.74,9.3-8.28,16.83-17.57,17.57
				c-11.81,0.94-21.64-8.88-20.7-20.7c0.74-9.3,8.28-16.83,17.57-17.57C160.26,125.9,170.1,135.73,169.15,147.55z M148.79,90.1
				c0,0.98-1.3,1.33-1.8,0.48l-13.17-22.83l-1.36-2.35l-2.95-5.1c-0.38-0.65,0.09-1.47,0.84-1.47h17.46c0.54,0,0.96,0.43,0.96,0.96
				V90.1z M151.2,90.11v-30.3c0-0.54,0.44-0.97,0.97-0.97h17.47c0.75,0,1.22,0.81,0.84,1.47l-2.95,5.11l-1.36,2.35L153,90.59
				C152.51,91.44,151.2,91.09,151.2,90.11z M83.24,68.43c0-1.09,1.5-1.34,1.89-0.32c3.17,8.5,7.96,16.21,14,22.76
				c0.08,0.1,0.17,0.19,0.25,0.27c0.41,0.43,0.83,0.87,1.25,1.3c0.03,0.03,0.06,0.06,0.1,0.1c0.44,0.45,0.89,0.89,1.33,1.32
				c0.52,0.5,1.05,1,1.58,1.48c0.67,0.61,1.36,1.2,2.04,1.78c0.36,0.3,0.73,0.61,1.1,0.89c0.11,0.09,0.22,0.18,0.33,0.26
				c7.6,5.99,16.39,10.36,25.8,12.77c0.97,0.25,0.97,1.62,0,1.86c-8.91,2.28-17.27,6.32-24.59,11.83c-0.43,0.32-0.85,0.65-1.27,0.98
				c-0.63,0.5-1.24,1-1.85,1.52c-0.61,0.52-1.22,1.06-1.81,1.6c-0.39,0.36-0.78,0.72-1.16,1.08c-0.17,0.16-0.33,0.32-0.5,0.47
				c-0.47,0.46-0.93,0.92-1.39,1.39c-0.41,0.42-0.81,0.85-1.22,1.29c-0.02,0.02-0.04,0.04-0.06,0.06
				c-3.41,3.69-6.46,7.77-9.03,12.21c-1.93,3.34-3.58,6.83-4.91,10.43c-0.29,0.78-1.21,0.83-1.66,0.34
				c-0.06-0.07-0.11-0.15-0.15-0.24c-0.06-0.12-0.08-0.25-0.08-0.41V68.43z M215.71,178.89H84.29c-0.56,0-1.01-0.46-1-1.01
				c0.34-11.02,3.38-21.81,8.87-31.3c11.54-19.93,32.69-32.53,55.59-33.31c0.56-0.02,1.03,0.43,1.03,0.99v9.26
				c0,0.5-0.39,0.91-0.89,0.96c-11.5,1.13-20.38,11.3-19.41,23.28c0.85,10.55,9.43,19.03,19.99,19.77
				c12.61,0.89,23.15-9.12,23.15-21.55c0-11.2-8.57-20.44-19.51-21.5c-0.5-0.05-0.89-0.45-0.89-0.96v-9.27
				c0-0.55,0.47-1.01,1.03-0.99c35.07,1.17,63.37,29.51,64.45,64.61C216.73,178.42,216.27,178.89,215.71,178.89z M216.76,155.48
				c0,1.1-1.51,1.36-1.9,0.32c-7.85-21.01-25.64-37.23-47.62-42.88c-0.98-0.25-0.98-1.64,0-1.89c21.99-5.66,39.79-21.88,47.64-42.92
				c0.39-1.03,1.89-0.78,1.89,0.32V155.48z"/>
		</g>
		<g>
			<path class="st5" d="M100.62,92.44c0.03,0.03,0.07,0.07,0.1,0.1C100.68,92.51,100.65,92.47,100.62,92.44z"/>
		</g>
		<g>
			<path class="st5" d="M100.72,92.54c0.44,0.45,0.89,0.89,1.34,1.32C101.6,93.43,101.16,92.98,100.72,92.54z"/>
		</g>
		<g>
			<path class="st5" d="M103.63,95.34c-0.54-0.48-1.06-0.98-1.58-1.48C102.57,94.36,103.1,94.86,103.63,95.34z"/>
		</g>
		<g>
			<path class="st5" d="M101.74,130.4c-7.26,7.08-12.99,15.73-16.6,25.4c-0.33,0.89-1.51,0.83-1.82,0.08
				c0.32,0.73,1.48,0.79,1.81-0.1c1.33-3.61,2.98-7.09,4.91-10.43C93.27,139.79,97.23,134.77,101.74,130.4z"/>
		</g>
		<g>
			<path class="st5" d="M105.2,127.24c-0.61,0.52-1.22,1.06-1.81,1.6C103.99,128.3,104.59,127.76,105.2,127.24z"/>
		</g>
		<g>
			<path class="st5" d="M103.39,128.84c-0.39,0.36-0.78,0.72-1.16,1.08C102.61,129.56,103,129.2,103.39,128.84z"/>
		</g>
		<g>
			<path class="st5" d="M102.23,129.92c-0.17,0.16-0.33,0.32-0.49,0.47C101.9,130.24,102.07,130.08,102.23,129.92z"/>
		</g>
	</g>
</g>
</svg>
